<svg height="479.99829pt" viewBox="0 0 479.99829 479.99829" width="479.99829pt" xmlns="http://www.w3.org/2000/svg"><path d="m477.65625 466.34375-464-464c-2.289062-2.2890625-5.730469-2.972656-8.71875-1.734375s-4.9375 4.152344-4.9375 7.390625v464c0 4.417969 3.582031 8 8 8h464c3.234375-.003906 6.152344-1.953125 7.390625-4.941406 1.238281-2.988282.550781-6.429688-1.734375-8.714844zm-109.65625-2.34375v-32h-16v32h-48v-32h-16v32h-56v-32h-16v32h-56v-32h-16v32h-48v-32h-16v32h-64v-64h32v-16h-32v-56h32v-16h-32v-56h32v-16h-32v-48h32v-16h-32v-48h32v-16h-32v-84.691406l436.6875 436.691406zm0 0"/><path d="m72 416h245.496094c3.234375-.003906 6.152344-1.953125 7.390625-4.941406 1.238281-2.988282.550781-6.429688-1.734375-8.714844l-245.496094-245.488281c-2.289062-2.289063-5.730469-2.972657-8.71875-1.734375-2.988281 1.238281-4.9375 4.152344-4.9375 7.390625v245.488281c0 4.417969 3.582031 8 8 8zm8-234.175781 218.175781 218.175781h-218.175781zm0 0"/></svg>