<?xml version="1.0" encoding="iso-8859-1"?>
<!-- Generator: Adobe Illustrator 18.0.0, SVG Export Plug-In . SVG Version: 6.00 Build 0)  -->
<!DOCTYPE svg PUBLIC "-//W3C//DTD SVG 1.1//EN" "http://www.w3.org/Graphics/SVG/1.1/DTD/svg11.dtd">
<svg version="1.1" id="Capa_1" xmlns="http://www.w3.org/2000/svg" xmlns:xlink="http://www.w3.org/1999/xlink" x="0px" y="0px"
	 viewBox="0 0 293.988 293.988" style="enable-background:new 0 0 293.988 293.988;" xml:space="preserve">
<g id="Puerta_camerina">
	<rect x="130.245" y="113.582" width="33.498" height="13.047"/>
	<path d="M226.434,0H67.555c-3.313,0-6,2.687-6,6v281.988c0,3.313,2.687,6,6,6h158.879c3.313,0,6-2.687,6-6V6
		C232.434,2.687,229.747,0,226.434,0z M220.434,281.988H73.555V12h146.879V281.988z"/>
	<path d="M146.707,97.607h0.575c18.992,0,34.443-15.451,34.443-34.442V62.59c0-18.991-15.451-34.442-34.443-34.442h-0.575
		c-18.992,0-34.443,15.451-34.443,34.442v0.575C112.264,82.156,127.715,97.607,146.707,97.607z M124.264,62.59
		c0-12.375,10.068-22.442,22.443-22.442h0.575c12.375,0,22.443,10.067,22.443,22.442v0.575c0,12.375-10.068,22.442-22.443,22.442
		h-0.575c-12.375,0-22.443-10.067-22.443-22.442V62.59z"/>
	<polygon points="136.482,77.346 146.994,69.708 157.506,77.346 153.491,64.989 164.003,57.351 151.009,57.351 146.994,44.994 
		142.979,57.351 129.986,57.351 140.498,64.989 	"/>
</g>
<g>
</g>
<g>
</g>
<g>
</g>
<g>
</g>
<g>
</g>
<g>
</g>
<g>
</g>
<g>
</g>
<g>
</g>
<g>
</g>
<g>
</g>
<g>
</g>
<g>
</g>
<g>
</g>
<g>
</g>
</svg>
