<svg height="512pt" viewBox="0 0 512 512" width="512pt" xmlns="http://www.w3.org/2000/svg"><path d="m497 91h-15v-45c0-8.285156-6.714844-15-15-15h-60c-8.285156 0-15 6.714844-15 15v45h-15c-8.285156 0-15 6.714844-15 15v90c0 24.484375 11.796875 46.261719 30 59.960938v30.039062c0 19.554688 12.539062 36.226562 30 42.421875v2.578125c0 37.324219-13.617188 71.519531-36.136719 97.902344 4.039063-12.09375 6.136719-24.855469 6.136719-37.902344 0-66.167969-54.28125-120-121-120s-121 53.832031-121 120c0 13.046875 2.097656 25.808594 6.136719 37.902344-22.519531-26.382813-36.136719-60.578125-36.136719-97.902344v-2.582031c17.460938-6.191407 30-22.863281 30-42.417969v-25.144531c35.441406-16.882813 60-53.054688 60-94.855469v-90c0-8.285156-6.714844-15-15-15h-15v-46c0-8.285156-6.714844-15-15-15h-120c-8.285156 0-15 6.714844-15 15v46h-15c-8.285156 0-15 6.714844-15 15v90c0 41.800781 24.558594 77.972656 60 94.855469v25.144531c0 19.554688 12.539062 36.226562 30 42.421875v2.578125c0 99.507812 81.503906 181 181 181 99.507812 0 181-81.503906 181-181v-2.578125c17.460938-6.195313 30-22.867187 30-42.421875v-30.039062c18.203125-13.699219 30-35.476563 30-59.960938v-90c0-8.285156-6.714844-15-15-15zm-347-30h-30v-31h30zm-90-31h30v31h-30zm-30 136v-75h150v75c0 41.355469-33.644531 75-75 75s-75-33.644531-75-75zm75 105c5.09375 0 10.097656-.371094 15-1.074219v16.074219c0 8.269531-6.730469 15-15 15s-15-6.730469-15-15v-16.074219c4.902344.703125 9.90625 1.074219 15 1.074219zm166 30c50.179688 0 91 40.375 91 90 0 49.328125-41.671875 91-91 91s-91-41.671875-91-91c0-49.625 40.820312-90 91-90zm151-240h30v30h-30zm30 225c0 8.269531-6.730469 15-15 15s-15-6.730469-15-15v-16.507812c4.847656.988281 9.863281 1.507812 15 1.507812s10.152344-.519531 15-1.507812zm30-90c0 24.8125-20.1875 45-45 45s-45-20.1875-45-45v-75h90zm0 0"/></svg>